<svg xmlns="http://www.w3.org/2000/svg" width="28" height="28" viewBox="0 0 24 24" role="img" aria-labelledby="title">
  <title id="title">WhatsApp</title>
  <path fill="currentColor" d="M20.52 3.48A11.82 11.82 0 0 0 12.02 0C5.4 0 .02 5.38.02 12c0 2.11.55 4.17 1.6 6L0 24l6.2-1.62A11.9 11.9 0 0 0 12.02 24C18.64 24 24 18.62 24 12c0-3.2-1.25-6.21-3.48-8.52zM12.02 22a9.96 9.96 0 0 1-5.08-1.4l-.36-.21-3.68.96.98-3.58-.23-.37A9.95 9.95 0 1 1 22 12c0 5.5-4.48 10-9.98 10z"/>
  <path fill="currentColor" d="M17.25 14.26c-.28-.14-1.64-.81-1.9-.9-.25-.09-.44-.14-.63.14-.19.28-.72.9-.89 1.09-.16.19-.32.21-.6.07-.28-.14-1.17-.43-2.23-1.38-.82-.73-1.38-1.64-1.54-1.92-.16-.28-.02-.43.12-.57.12-.12.28-.32.42-.49.14-.16.19-.28.28-.46.09-.19.05-.35-.02-.49-.07-.14-.63-1.52-.87-2.08-.23-.55-.46-.47-.63-.48h-.54c-.19 0-.49.07-.74.35-.26.28-.97.95-.97 2.32 0 1.37 1 2.69 1.14 2.88.14.19 1.97 3.01 4.77 4.22.67.29 1.19.46 1.6.59.67.21 1.28.18 1.76.11.54-.08 1.64-.67 1.87-1.32.23-.65.23-1.2.16-1.32-.07-.12-.25-.19-.53-.33z"/>
</svg>